PathFileType	4	(X/Y/Z)	Walking02.trc	
DataRate	CameraRate	NumFrames	NumMarkers	Units	OrigDataRate	OrigDataStartFrame	OrigNumFrames	
100.00	100.00	14	19	mm	100.00	391	98	
Frame#	Time	RPSI			LPSI			RASI			LASI			RTHI			RKNE			RHFB			RTUB			RSHN			RANK			RLCA			RSTL			RPCA			RCPG			RHEE			RP5M			RP1M			RD5M			RTOE			
		X1	Y1	Z1	X2	Y2	Z2	X3	Y3	Z3	X4	Y4	Z4	X5	Y5	Z5	X6	Y6	Z6	X7	Y7	Z7	X8	Y8	Z8	X9	Y9	Z9	X10	Y10	Z10	X11	Y11	Z11	X12	Y12	Z12	X13	Y13	Z13	X14	Y14	Z14	X15	Y15	Z15	X16	Y16	Z16	X17	Y17	Z17	X18	Y18	Z18	X19	Y19	Z19	

74	0.730	208.23798	920.61145	-53.93606	203.07359	931.17755	-147.16393	398.53326	872.58423	11.28964	396.99979	878.51172	-224.65518	386.02798	576.74054	75.22379	434.90918	447.85843	70.25481	423.38229	414.08466	70.14581	480.89850	384.03381	23.02078	428.90778	322.76324	6.76155	206.60237	171.48671	7.14109	184.70799	158.87653	-2.05292	201.16463	151.48747	-66.06022	183.04291	189.47282	-39.50077	155.50058	193.72371	-44.06476	155.23000	160.31998	-48.39415	240.02977	80.35596	33.24582	292.86575	106.50085	-38.02726	268.41373	60.28687	42.68748	308.53934	59.57406	9.88462 
75	0.740	221.85870	922.26447	-53.53901	216.62462	932.59308	-146.96277	412.36899	874.13837	10.03546	410.22525	878.76953	-225.49770	403.97681	579.24384	74.43959	456.54102	450.87280	68.25603	446.31516	415.67606	68.00315	504.62048	388.99487	20.24132	456.45349	325.08539	4.50521	244.11542	159.56761	8.16224	222.55856	145.19547	-1.34563	240.29391	138.73225	-64.70457	217.52917	175.42711	-38.56651	190.67020	177.18964	-43.70312	193.25906	144.12880	-47.14877	283.79910	72.43964	35.66563	334.50247	100.70380	-37.10043	313.76190	54.12325	44.49418	353.51074	55.90205	11.79267 
76	0.750	235.54120	923.42902	-53.07967	230.14040	933.64142	-146.71751	426.17859	875.43524	9.04592	422.23843	878.48975	-226.22012	421.49823	581.49554	73.39085	477.05212	453.52237	65.97253	468.44070	416.91565	65.77769	527.38910	393.52237	17.30548	483.31100	326.99570	2.25669	282.75510	147.16939	9.37785	262.04089	131.31345	0.16674	280.61920	126.07701	-63.34789	255.50044	161.75883	-37.07948	227.28767	160.57042	-42.23912	232.50865	127.74809	-45.58850	328.85800	63.79829	37.50683	376.82922	95.16205	-36.04957	359.95120	48.33961	46.44324	398.93030	52.62044	13.79444 
77	0.760	249.25641	924.09351	-52.55972	243.75980	934.16431	-146.36560	439.98032	876.51447	8.41970	435.41870	878.33118	-226.93599	438.61859	583.15753	72.48495	496.82831	455.84158	63.47573	489.66492	417.88297	63.25880	549.13794	397.48691	14.27371	509.50259	328.47253	0.00096	322.50867	134.68887	10.57954	302.66013	117.64716	2.03022	321.70227	113.66012	-61.83885	294.47070	147.50841	-35.71773	264.96677	144.13177	-39.69165	272.99939	111.59853	-43.56813	374.74817	55.27292	39.28088	419.57761	89.73592	-34.96775	407.13647	42.49534	47.75080	445.62039	49.00125	13.97288 
78	0.770	262.90762	924.26288	-52.05437	257.32321	934.21338	-145.93562	453.75006	877.35077	8.14440	448.56519	877.73053	-227.39688	455.46786	584.32672	71.49644	515.60260	457.43542	60.75142	510.01328	418.47116	60.69223	569.95306	401.00397	11.19994	534.94989	329.55875	-2.04141	363.23203	122.47261	12.17758	344.64816	103.92564	3.47990	361.72531	100.50143	-59.95490	320.65509	137.85042	-34.53882	304.51590	127.99029	-37.55674	314.88797	95.93341	-41.38634	421.09927	48.14146	41.10435	462.84741	84.71329	-33.73399	454.31161	37.06508	49.07484	491.96600	46.08072	14.88256 
79	0.780	276.62476	923.92822	-51.48604	270.91531	933.68701	-145.34808	467.53751	877.87427	8.23887	461.59845	876.57007	-227.59767	471.98792	584.82697	70.32204	533.26294	458.12695	57.91417	529.67651	418.50293	58.18973	589.70386	403.88821	8.11931	559.79315	330.28833	-3.91045	404.46481	111.14693	14.05244	387.78830	90.78992	4.64397	404.53262	89.00954	-58.08334				345.77026	111.98011	-36.25387	357.90164	80.96975	-39.22183	467.82266	41.35089	43.13369	506.78592	80.55257	-32.23697	501.65027	32.64331	50.79639	538.69739	44.22857	16.25612 
80	0.790	290.34665	923.03656	-50.93831	284.59454	932.59558	-144.61385	481.46500	877.96869	8.41116	474.66089	874.95593	-227.59634	487.94562	584.50531	68.58379	550.17487	458.20514	54.82957	548.58435	418.00909	55.74552	608.33008	406.06647	4.95515	583.89813	330.66821	-5.80969	445.85251	101.22955	16.07450	430.38229	80.18825	6.96543	448.78555	79.44820	-56.01971				387.80496	97.11088	-34.14632	401.63992	67.08886	-36.76293	514.59277	35.67210	45.29437	551.32605	77.62560	-30.54938	549.05707	29.54515	52.82368	585.67657	43.83902	17.89723 
81	0.800	304.15948	921.53326	-50.30985	298.24112	930.97070	-143.77525	495.52075	877.57599	8.69455	487.85748	873.02118	-227.46562	503.46661	583.27838	66.42516	566.33722	457.64075	51.52803	566.33185	416.87961	52.94272	626.18427	407.50784	1.67166	607.45148	330.93460	-7.76571	487.91016	92.34930	18.06554	473.37247	70.32061	9.37063	491.78403	69.41151	-53.52603				430.32919	83.42964	-31.81168	445.97116	54.70166	-34.10873	561.39691	31.76637	47.50759	595.00262	75.36031	-29.00635	596.22247	28.22910	54.99326	631.70239	44.52654	19.62810 
82	0.810	318.13556	919.43390	-49.60798	312.02899	928.76923	-142.65895	509.75287	876.65613	9.07797	501.26074	870.82837	-227.24463	518.71143	581.44537	64.14115	581.64465	456.06058	48.24091	583.22583	415.00699	49.99617	643.34167	407.99677	-1.68478	630.29364	331.20184	-9.75242	530.28345	84.56488	19.85757	516.96527	60.97989	11.33981	534.58771	60.76898	-51.26002				472.95056	71.02262	-29.53863	490.76099	43.57142	-31.63675	608.05109	29.70773	49.54697	637.58478	74.27773	-27.68276	643.20343	29.02542	57.03130	677.11591	47.14566	21.22178 
83	0.820	332.21814	916.86200	-48.71278	325.87006	926.25018	-141.40868	524.24707	875.23792	9.52814	514.86194	868.33856	-226.91914	533.52832	578.96735	61.89575	596.16278	453.54974	45.33438	599.42621	412.37857	47.41654	659.96649	407.62891	-4.88991	652.32471	331.52032	-11.78274	572.53021	78.08337	21.19910	561.07965	52.92942	13.55014	577.68896	53.97621	-49.39228				515.91931	59.94794	-27.56487	536.07739	33.72224	-29.37157	654.17432	29.64510	51.17910	679.74176	75.34086	-26.62943	689.58820	31.84260	58.56762	721.79095	51.83371	22.40800 
84	0.830	346.49814	913.87915	-47.56102	339.77722	923.52094	-139.95943	538.80646	873.29517	9.83622	528.57928	865.59802	-226.58679	548.00391	575.99817	60.06722	610.08215	450.28662	42.75066	615.02991	409.11411	45.08459	676.13342	406.69046	-7.85895	673.66785	331.85645	-13.58342	614.28082	73.42886	22.27674	604.85687	48.41216	15.94698	620.84515	48.56923	-47.70543	595.97705	66.01054	-22.55574	558.79266	50.48036	-25.98070	581.24579	25.76089	-27.54714	699.42834	31.43208	52.10941	721.05536	78.28504	-26.00573	734.84717	36.65841	59.25427	765.23993	58.36539	22.88917 
85	0.840	361.04657	910.59021	-46.01057	353.88882	920.59418	-138.18103	553.53162	870.96088	9.99322	541.83026	862.50354	-226.28926	562.31390	572.58990	58.90474	623.73273	446.41263	40.47303	630.25201	405.51602	43.04972	691.80524	405.58063	-10.25536	694.31982	332.27621	-15.02768	655.25006	70.63282	22.90761	648.12140	45.04049	16.73269	662.74677	45.37278	-46.84806	626.43915	62.29901	-22.13693	601.10889	42.87426	-24.87947	624.98853	20.70369	-26.50849	743.53650	34.55264	52.21518	761.03113	82.93166	-25.86417	778.22052	42.70780	58.85354	807.16620	66.60677	22.84107 
86	0.850	376.16653	906.96014	-44.17091	368.11032	917.80896	-136.15591	568.46008	868.23737	10.15202	554.73645	859.08331	-226.03178	576.68134	568.78278	58.68962	637.33087	442.09555	38.71284	645.17267	401.82101	41.50176	707.08276	404.35263	-12.00020	714.38727	332.86154	-16.14387	694.72717	69.55136	22.99167	689.61462	43.33984	16.86938	704.23309	44.93945	-46.70212	663.78320	59.18812	-21.97260	642.47028	37.52924	-24.54261	667.74365	17.67004	-25.98317	785.48376	39.48904	52.03564	799.29785	89.03651	-25.93879	819.47552	49.86397	58.81354	846.94305	75.94402	22.48274 
87	0.860	391.70999	903.21875	-42.14983	382.44156	915.11804	-134.05019	583.53082	864.97852	10.42327	569.20465	856.03668	-225.67564	590.88464	564.73376	59.19434	650.97955	437.82913	37.46286	659.90137	398.27075	40.06768	722.13239	403.28546	-13.49217	733.78540	333.56952	-17.14344	732.43402	69.77663	22.61659	729.00854	43.32312	16.52458	743.54803	46.01767	-46.92189	701.56342	57.67464	-22.43774	682.36975	34.59884	-25.06831	708.48749	16.83192	-26.35417	824.75043	45.77938	51.80288	835.42780	96.24883	-26.00665	857.90802	57.86757	58.92783	884.27625	86.01579	22.02209 
